<svg xmlns="http://www.w3.org/2000/svg" width="43" height="32" viewBox="0 0 43 32" fill="none">
                                 <g clip-path="url(#clip0_1699_531)">
                                    <path d="M36.7167 18.3833C35.225 18.3917 33.9333 18.75 32.85 19.2834C32.45 18.4917 32.05 17.8 31.9834 17.2834C31.9084 16.6834 31.8167 16.3166 31.9084 15.6001C32 14.8833 32.4167 13.8666 32.4167 13.7833C32.4082 13.7083 32.3249 13.3416 31.4667 13.3333C30.6084 13.325 29.8667 13.5 29.7833 13.725C29.7 13.95 29.5333 14.4666 29.425 15C29.275 15.7833 27.7083 18.5583 26.8167 20.0166C26.525 19.45 26.275 18.95 26.2249 18.5499C26.15 17.95 26.0582 17.5832 26.15 16.8666C26.2417 16.1499 26.6583 15.1333 26.6583 15.05C26.65 14.975 26.5667 14.6083 25.7084 14.6C24.85 14.5916 24.1084 14.7666 24.0251 14.9916C23.9417 15.2166 23.8501 15.75 23.6667 16.2666C23.4917 16.7833 21.4083 21.4166 20.8667 22.625C20.5917 23.2416 20.3501 23.7333 20.175 24.0666C20 24.4 20.1667 24.0916 20.15 24.125C20 24.4083 19.9167 24.5666 19.9167 24.5666V24.5751C19.8 24.7834 19.675 24.9833 19.6166 24.9833C19.5749 24.9833 19.4916 24.425 19.6332 23.6584C19.9416 22.05 20.6916 19.5417 20.6833 19.4501C20.6833 19.4084 20.8249 18.9666 20.1999 18.7417C19.5916 18.5167 19.375 18.8917 19.3249 18.8917C19.2749 18.8917 19.2332 19.0251 19.2332 19.0251C19.2332 19.0251 19.9082 16.2001 17.9416 16.2001C16.7082 16.2001 15.0082 17.5418 14.1666 18.7668C13.6332 19.0585 12.4999 19.6751 11.2999 20.3335C10.8416 20.5835 10.3666 20.8501 9.91658 21.0918L9.825 20.9916C7.44166 18.45 3.03333 16.65 3.21666 13.2333C3.28333 11.9916 3.71666 8.71664 11.6834 4.74997C18.2084 1.49997 23.4334 2.39164 24.3417 4.37497C25.6333 7.2083 21.55 12.475 14.7667 13.2333C12.1834 13.525 10.825 12.525 10.4834 12.15C10.1251 11.7583 10.0751 11.7416 9.94175 11.8166C9.72508 11.9333 9.85841 12.2833 9.94175 12.4916C10.1417 13.0166 10.9751 13.95 12.3917 14.4166C13.6333 14.825 16.6667 15.05 20.3334 13.6333C24.4417 12.0416 27.6501 7.62497 26.7084 3.9333C25.7501 0.174969 19.5167 -1.05836 13.6251 1.0333C10.1167 2.2833 6.31666 4.2333 3.58333 6.79164C0.333329 9.82497 -0.183338 12.475 0.0333285 13.575C0.791745 17.5 6.2 20.0583 8.36666 21.95C8.25833 22.0082 8.15833 22.0666 8.06666 22.1166C6.98333 22.6499 2.85833 24.8083 1.825 27.0916C0.658329 29.6749 2.00833 31.5333 2.90833 31.7833C5.69166 32.5583 8.54166 31.1666 10.0833 28.875C11.6166 26.5833 11.4333 23.6083 10.725 22.25L10.6999 22.2L11.5499 21.7C12.1 21.375 12.6417 21.075 13.1166 20.8166C12.85 21.5416 12.6582 22.3999 12.5583 23.6499C12.4417 25.1166 13.0417 27.0166 13.8333 27.7666C14.1833 28.0915 14.6 28.0999 14.8583 28.0999C15.775 28.0999 16.1917 27.3415 16.65 26.4332C17.2167 25.3249 17.7167 24.0416 17.7167 24.0416C17.7167 24.0416 17.0917 27.5166 18.8 27.5166C19.425 27.5166 20.05 26.7082 20.3333 26.2916V26.2999C20.3333 26.2999 20.35 26.2749 20.3833 26.2166C20.4183 26.1649 20.4516 26.1121 20.4833 26.0583V26.0416C20.7333 25.6083 21.2917 24.6166 22.125 22.975C23.1999 20.8583 24.2333 18.2083 24.2333 18.2083C24.2333 18.2083 24.3333 18.8583 24.6417 19.925C24.8249 20.5584 25.2249 21.25 25.5332 21.925C25.2832 22.275 25.1332 22.4751 25.1332 22.4751L25.1416 22.4834C24.9417 22.7501 24.7166 23.0335 24.4833 23.3167C23.6333 24.3334 22.6167 25.4918 22.4833 25.8251C22.325 26.2167 22.3583 26.5084 22.6667 26.7418C22.8917 26.9085 23.2917 26.9417 23.7167 26.9085C24.4833 26.8584 25.0167 26.6668 25.2833 26.5501C25.7 26.4001 26.175 26.1751 26.6333 25.8417C27.4667 25.2251 27.975 24.3501 27.925 23.1835C27.9 22.5418 27.6917 21.9085 27.4333 21.3085C27.5083 21.2001 27.5834 21.0917 27.6583 20.9751C28.975 19.0501 29.9917 16.9335 29.9917 16.9335C29.9917 16.9335 30.0917 17.5835 30.4 18.6501C30.5582 19.1918 30.875 19.7836 31.1583 20.3669C29.925 21.3752 29.15 22.5419 28.8833 23.3086C28.3917 24.7252 28.775 25.3669 29.5 25.5169C29.8249 25.5836 30.2917 25.4336 30.6416 25.2836C31.0749 25.1419 31.5999 24.9001 32.0833 24.5419C32.9167 23.9252 33.7167 23.0669 33.675 21.9086C33.65 21.3752 33.5083 20.8502 33.3167 20.3502C34.3667 19.9169 35.7249 19.6669 37.45 19.8752C41.1583 20.3086 41.8917 22.6252 41.7501 23.5919C41.6084 24.5586 40.8334 25.0919 40.575 25.2586C40.3167 25.4169 40.2333 25.4753 40.2583 25.5919C40.2917 25.767 40.4083 25.7586 40.6333 25.7253C40.9417 25.6752 42.5833 24.9336 42.65 23.1504C42.75 20.8584 40.575 18.3584 36.7167 18.3833ZM8.11666 28.025C6.89166 29.3666 5.16666 29.875 4.43333 29.4416C3.64166 28.9833 3.94991 27.0083 5.45833 25.5833C6.375 24.7166 7.56666 23.9166 8.34999 23.425C8.52499 23.3166 8.79166 23.1584 9.10833 22.9666C9.15833 22.9334 9.19166 22.9166 9.19166 22.9166C9.25 22.8833 9.31666 22.8416 9.38333 22.8C9.94166 24.8333 9.40833 26.6166 8.11666 28.025ZM17.075 21.9333C16.65 22.975 15.75 25.65 15.2083 25.5C14.7416 25.375 14.4583 23.35 15.1166 21.35C15.4499 20.3416 16.1582 19.1416 16.5749 18.6749C17.25 17.9249 17.9832 17.6749 18.1667 17.9832C18.3833 18.3833 17.3417 21.2833 17.075 21.9333ZM24.4667 25.4666C24.2833 25.5584 24.1167 25.625 24.0417 25.5751C23.9833 25.5417 24.1166 25.4167 24.1166 25.4167C24.1166 25.4167 25.0416 24.4251 25.4082 23.9667C25.6166 23.7001 25.8666 23.3918 26.1332 23.0417V23.1417C26.1333 24.3416 24.9833 25.1416 24.4667 25.4666ZM30.1666 24.1666C30.0332 24.0666 30.05 23.7583 30.4999 22.7916C30.675 22.4083 31.0749 21.7666 31.7666 21.1583C31.8499 21.4083 31.9 21.6499 31.8916 21.875C31.8833 23.375 30.8167 23.9333 30.1666 24.1666Z" fill="#8B3DFF"></path>
                                 </g>
                                 <defs>
                                    <clipPath id="clip0_1699_531">
                                       <rect width="42.6667" height="32" fill="white"></rect>
                                    </clipPath>
                                 </defs>
                              </svg>