<svg xmlns="http://www.w3.org/2000/svg" width="23" height="32" viewBox="0 0 23 32" fill="none">
                                 <g clip-path="url(#clip0_1699_502)">
                                    <path d="M2.06294 29.4286L0 6.28955H22.6688L20.6036 29.4249L11.3205 31.9985L2.06294 29.4286Z" fill="#8B3DFF"></path>
                                    <path d="M11.3344 30.0315L18.8356 27.9519L20.6004 8.18164H11.3344V30.0315Z" fill="#8B3DFF"></path>
                                    <path d="M11.3344 16.7635H7.57909L7.31974 13.8575H11.3344V11.0195H4.21826L4.28619 11.7809L4.98369 19.6014H11.3344V16.7635ZM11.3344 24.1339L11.322 24.1372L8.16135 23.2838L7.9593 21.0204H5.11049L5.50808 25.4763L11.3213 27.0901L11.3344 27.0865V24.1339Z" fill="#EBEBEB"></path>
                                    <path d="M2.10907 0.00146484H3.55125V1.42634H4.87051V0.00146484H6.31276V4.31633H4.87057V2.87146H3.55132V4.31633H2.10919V0.00146484H2.10907ZM8.20928 1.43234H6.9397V0.00146484H10.9218V1.43234H9.65165V4.31633H8.2094L8.20928 1.43234ZM11.5538 0.00146484H13.0575L13.9826 1.51758L14.9067 0.00146484H16.4111V4.31633H14.9749V2.17765L13.9826 3.71182H13.9579L12.9649 2.17765V4.31633H11.5539V0.00146484H11.5538ZM17.1289 0.00146484H18.5715V2.89008H20.5996V4.31633H17.1289V0.00146484Z" fill="#8B3DFF"></path>
                                    <path d="M11.3246 16.7635V19.6014H14.8191L14.4897 23.2819L11.3246 24.1362V27.0887L17.1424 25.4763L17.1851 24.9969L17.852 17.5256L17.9212 16.7635H17.1565H11.3246ZM11.3246 11.0195V13.8575H18.1795L18.2364 13.2196L18.3657 11.7809L18.4336 11.0195H11.3246Z" fill="white"></path>
                                 </g>
                                 <defs>
                                    <clipPath id="clip0_1699_502">
                                       <rect width="22.6688" height="32" fill="white"></rect>
                                    </clipPath>
                                 </defs>
                              </svg>