<svg xmlns="http://www.w3.org/2000/svg" width="32" height="32" viewBox="0 0 32 32" fill="none">
                                 <path opacity="0.2" d="M11 25.0001V16.8588L16.5462 21.7226L12.72 25.6926C12.5817 25.836 12.4038 25.9349 12.209 25.9765C12.0141 26.0182 11.8113 26.0006 11.6265 25.9262C11.4417 25.8518 11.2833 25.7239 11.1717 25.5589C11.0601 25.3939 11.0003 25.1993 11 25.0001ZM28.8287 4.00883L3.5 13.9226C3.34274 13.9831 3.20935 14.093 3.11986 14.2358C3.03038 14.3786 2.98962 14.5465 3.0037 14.7145C3.01779 14.8824 3.08596 15.0412 3.19799 15.1671C3.31002 15.293 3.45985 15.3791 3.625 15.4126L11 16.8588L29 4.15258C29.0054 4.13 29.0044 4.10637 28.9971 4.08433C28.9898 4.06229 28.9766 4.04272 28.9588 4.02779C28.941 4.01287 28.9194 4.00319 28.8965 3.99984C28.8735 3.99649 28.85 3.9996 28.8287 4.00883Z" fill="#8B3DFF"></path>
                                 <path d="M29.61 3.27376C29.4551 3.13997 29.2666 3.051 29.0648 3.01641C28.863 2.98183 28.6556 3.00296 28.465 3.07751L3.1325 12.9913C2.77348 13.1309 2.46952 13.3833 2.2664 13.7106C2.06328 14.0379 1.97197 14.4224 2.00624 14.806C2.0405 15.1897 2.19848 15.5519 2.45639 15.838C2.71429 16.1241 3.05817 16.3187 3.43625 16.3925L10 17.6813V25C9.9987 25.3987 10.1172 25.7885 10.34 26.119C10.5629 26.4496 10.8799 26.7055 11.25 26.8538C11.6195 27.0046 12.0258 27.0409 12.4162 26.9577C12.8065 26.8746 13.1628 26.6759 13.4387 26.3875L16.6037 23.105L21.625 27.5C21.9873 27.8213 22.4545 27.9992 22.9387 28C23.1509 27.9998 23.3618 27.9665 23.5637 27.9013C23.8937 27.7966 24.1904 27.6073 24.4244 27.3522C24.6584 27.0971 24.8215 26.7852 24.8975 26.4475L29.9712 4.37501C30.0166 4.17595 30.007 3.96829 29.9433 3.77429C29.8797 3.58029 29.7645 3.40727 29.61 3.27376ZM21.9675 7.77376L10.7687 15.7938L4.5675 14.5775L21.9675 7.77376ZM12 25V19.065L15.0987 21.7825L12 25ZM22.9412 26L12.6062 16.9375L27.4812 6.27626L22.9412 26Z" fill="#8B3DFF"></path>
                              </svg>