<svg xmlns="http://www.w3.org/2000/svg" width="22" height="32" viewBox="0 0 22 32" fill="none">
                                 <mask id="mask0_1700_169" style="mask-type: luminance" maskUnits="userSpaceOnUse" x="0" y="0" width="22" height="32">
                                    <path d="M21.3333 0H0V32H21.3333V0Z" fill="white"></path>
                                 </mask>
                                 <g mask="url(#mask0_1700_169)">
                                    <mask id="mask1_1700_169" style="mask-type: luminance" maskUnits="userSpaceOnUse" x="0" y="0" width="21" height="32">
                                       <path d="M20.9633 0.121216H0V31.5598H20.9633V0.121216Z" fill="white"></path>
                                    </mask>
                                    <g mask="url(#mask1_1700_169)">
                                       <path d="M5.24186 31.5599C8.13422 31.5599 10.4816 29.2125 10.4816 26.3201V21.0803H5.24186C2.34949 21.0803 0.0020752 23.4277 0.0020752 26.3201C0.0020752 29.2125 2.34949 31.5599 5.24186 31.5599Z" fill="#0ACF83"></path>
                                       <path d="M0.0020752 15.8405C0.0020752 12.9482 2.34949 10.6008 5.24186 10.6008H10.4816V21.0803H5.24186C2.34949 21.0803 0.0020752 18.7329 0.0020752 15.8405Z" fill="#A259FF"></path>
                                       <path d="M0.0022583 5.36099C0.0022583 2.46863 2.34968 0.121216 5.24204 0.121216H10.4818V10.6008H5.24204C2.34968 10.6008 0.0022583 8.25335 0.0022583 5.36099Z" fill="#F24E1E"></path>
                                       <path d="M10.4816 0.121216H15.7213C18.6137 0.121216 20.9612 2.46863 20.9612 5.36099C20.9612 8.25335 18.6137 10.6008 15.7213 10.6008H10.4816V0.121216Z" fill="#FF7262"></path>
                                       <path d="M20.9612 15.8405C20.9612 18.7329 18.6137 21.0803 15.7213 21.0803C12.829 21.0803 10.4816 18.7329 10.4816 15.8405C10.4816 12.9482 12.829 10.6008 15.7213 10.6008C18.6137 10.6008 20.9612 12.9482 20.9612 15.8405Z" fill="#1ABCFE"></path>
                                    </g>
                                 </g>
                              </svg>