<svg xmlns="http://www.w3.org/2000/svg" width="32" height="26" viewBox="0 0 32 26" fill="none">
                                 <g clip-path="url(#clip0_1699_512)">
                                    <path fill-rule="evenodd" clip-rule="evenodd" d="M6.6465 0.00292969C4.82063 0.00292969 3.46956 1.60105 3.53006 3.33418C3.58812 4.99924 3.51269 7.15574 2.96981 8.91437C2.425 10.6779 1.50425 11.7955 0 11.9389V13.5584C1.50425 13.7022 2.425 14.8192 2.96975 16.583C3.51269 18.3416 3.58806 20.4981 3.53 22.1632C3.4695 23.8961 4.82056 25.4944 6.64675 25.4944H25.3559C27.1818 25.4944 28.5326 23.8963 28.4721 22.1632C28.4141 20.4981 28.4895 18.3416 29.0324 16.583C29.5772 14.8192 30.4957 13.7017 32 13.5584V11.9389C30.4958 11.7952 29.5772 10.6782 29.0324 8.91437C28.4894 7.15599 28.4141 4.99924 28.4721 3.33418C28.5326 1.6013 27.1818 0.00292969 25.3559 0.00292969H6.64625H6.6465ZM21.6949 15.6946C21.6949 18.0811 19.9149 19.5284 16.9608 19.5284H11.9322C11.7883 19.5284 11.6504 19.4712 11.5487 19.3695C11.447 19.2678 11.3898 19.1298 11.3898 18.986V6.51143C11.3898 6.36758 11.447 6.22963 11.5487 6.12791C11.6504 6.0262 11.7883 5.96906 11.9322 5.96906H16.9322C19.3954 5.96906 21.0119 7.30331 21.0119 9.35181C21.0119 10.7896 19.9244 12.0768 18.539 12.3023V12.3773C20.425 12.5842 21.6949 13.8904 21.6949 15.6946ZM16.4125 7.68837H13.5452V11.7384H15.9602C17.8271 11.7384 18.8564 10.9866 18.8564 9.64293C18.8563 8.38368 17.9713 7.68837 16.4125 7.68837ZM13.5452 13.3453V17.8085H16.518C18.4618 17.8085 19.4913 17.0286 19.4913 15.5628C19.4913 14.0971 18.4329 13.3451 16.393 13.3451H13.5452V13.3453Z" fill="#8B3DFF"></path>
                                 </g>
                                 <defs>
                                    <clipPath id="clip0_1699_512">
                                       <rect width="32" height="25.4976" fill="white"></rect>
                                    </clipPath>
                                 </defs>
                              </svg>